<svg width="1200" height="1200" viewBox="0 0 1200 1200" fill="none" xmlns="http://www.w3.org/2000/svg">
<mask id="mask0_409_3640" style="mask-type:alpha" maskUnits="userSpaceOnUse" x="0" y="0" width="1197" height="1197">
<circle cx="598.033" cy="598.033" r="598.033" fill="#D9D9D9"/>
</mask>
<g mask="url(#mask0_409_3640)">
<path d="M925.883 1091.76C923.138 1093.73 920.001 1095.69 917.256 1097.65C914.118 1099.61 911.373 1101.57 908.236 1103.14C905.491 1104.71 903.138 1106.27 900.393 1107.84C900.001 1108.24 899.609 1108.24 899.216 1108.63C890.197 1114.12 880.785 1119.22 871.373 1123.92C868.628 1125.49 865.491 1127.06 862.746 1128.24C862.746 1128.24 862.354 1128.63 861.962 1128.63C858.824 1130.2 855.687 1131.76 852.55 1133.33C846.275 1136.47 839.609 1139.22 833.334 1141.96C830.197 1143.53 826.667 1144.71 823.53 1145.88C820.393 1147.06 816.864 1148.63 813.726 1149.8C810.589 1150.98 807.06 1152.55 803.922 1153.73C803.922 1153.73 803.922 1153.73 803.53 1153.73C800.393 1154.9 796.864 1156.08 793.726 1157.25C786.667 1159.61 779.216 1161.96 772.158 1164.31C769.805 1165.1 767.06 1165.88 764.707 1166.67C757.256 1169.02 749.805 1170.98 742.354 1172.55C739.609 1173.33 736.864 1173.73 733.726 1174.51C726.667 1176.08 719.216 1177.65 712.158 1179.22C710.589 1179.61 709.413 1179.61 707.844 1180C705.491 1180.39 702.746 1180.78 700.393 1181.18C696.864 1181.57 693.726 1182.35 690.197 1182.74C688.628 1183.14 687.06 1183.14 685.491 1183.53C683.53 1183.92 681.177 1184.31 678.824 1184.31C672.55 1185.1 665.883 1185.88 659.609 1186.67C657.648 1187.06 655.295 1187.06 653.334 1187.45H652.942C650.197 1187.84 647.452 1187.84 644.707 1188.24C641.962 1188.63 639.217 1188.63 636.471 1188.63C634.903 1188.63 632.942 1189.02 631.373 1189.02C628.236 1189.02 625.491 1189.41 622.746 1189.41C618.824 1189.41 615.295 1189.8 611.373 1189.8C607.452 1189.8 603.922 1189.8 600.001 1189.8C597.256 1189.8 594.511 1189.8 591.766 1189.8C426.275 1187.45 277.648 1117.25 171.373 1005.88C171.373 1005.88 171.373 1005.49 170.981 1005.49C159.216 994.902 169.413 938.431 216.864 902.745C276.471 857.647 419.217 829.412 419.217 829.412C419.217 829.412 474.511 820.392 679.609 863.137C799.609 888.235 890.981 924.706 941.962 1023.53C952.55 1043.92 963.138 1075.29 925.883 1091.76Z" fill="white"/>
<path d="M680.785 858.823C756.079 874.118 836.471 890.588 898.432 940.392C919.216 957.255 932.942 981.961 944.315 1005.88C949.805 1017.65 955.295 1029.8 959.609 1042.75C961.962 1051.37 965.491 1061.18 963.53 1071.37C963.138 1074.12 960.785 1077.65 958.824 1079.61C949.805 1088.63 940.001 1094.12 930.197 1101.18C872.55 1141.18 806.275 1169.41 737.648 1184.31C584.707 1217.65 419.216 1191.76 284.707 1111.37C240.001 1084.31 198.824 1051.37 163.53 1012.55C159.609 1007.84 159.609 1000 159.609 994.902C160.001 983.137 163.138 971.765 167.06 961.176C176.471 936.863 188.628 912.549 209.413 895.686C224.315 885.49 240.393 876.863 256.864 869.804C308.628 847.843 363.138 832.549 419.216 826.274C423.922 825.882 424.707 832.549 420.001 833.333C366.275 844.314 312.942 860.784 263.138 883.137C245.099 892.157 225.883 900 211.373 914.118C197.648 929.02 187.844 947.451 180.001 966.274C174.903 977.647 171.373 995.686 172.942 1004.71C197.648 1034.12 226.667 1060 258.04 1082.35C429.805 1202.35 690.589 1210.2 873.334 1110.2C889.805 1101.18 905.883 1090.98 921.177 1080.39C928.628 1075.29 936.471 1070.98 942.354 1065.1C942.746 1064.71 942.354 1065.1 942.354 1065.49C942.354 1065.88 941.962 1066.27 941.962 1066.27C942.354 1061.57 940.785 1055.29 938.824 1049.02C931.765 1026.27 920.393 1002.35 908.236 981.569C889.02 950.588 856.471 930.98 823.53 915.294C800.785 904.706 776.864 896.471 752.55 888.627C728.236 880.784 703.53 874.118 678.824 868.235C672.55 866.667 674.511 857.647 680.785 858.823Z" fill="#111111"/>
<path d="M1062.75 1336.47L69.4128 1314.51C130.589 1110.2 164.707 930.196 210.589 902.745C297.648 850.588 376.08 842.353 422.746 838.039C434.511 867.059 479.217 962.353 572.158 1000C661.962 1036.47 715.295 1012.16 723.53 971.765C728.629 945.882 712.55 903.529 704.315 889.804C699.609 885.882 696.472 880 694.903 874.117L691.766 861.176C698.432 859.608 705.099 858.039 711.766 855.686C783.138 868.235 891.374 927.059 914.511 960C942.354 999.608 980.785 1098.82 979.217 1153.33C976.864 1241.96 1062.75 1336.47 1062.75 1336.47Z" fill="white"/>
<path d="M1072.16 1340.78C776.472 1336.47 360.785 1332.16 69.4128 1324.71C63.9226 1324.71 59.6089 1320 59.6089 1314.51C91.3736 1207.45 116.864 1099.61 150.981 992.941C155.295 979.608 160.001 966.666 165.491 953.333C174.903 932.549 184.315 909.412 203.923 895.294C215.295 888.627 227.452 881.96 239.217 876.078C296.079 847.843 359.217 833.333 421.962 828.235C426.668 827.843 430.589 830.588 432.158 834.51C461.962 905.882 516.079 972.157 591.766 996.862C629.021 1009.8 695.295 1020.78 712.942 974.51C718.825 952.157 710.197 928.627 702.354 907.451C700.393 903.137 698.432 898.823 696.472 895.294L698.432 897.647C690.982 891.372 686.276 880.784 684.707 871.372L682.746 863.529C681.57 858.039 685.099 852.549 690.589 851.372C697.256 849.804 703.531 848.235 709.805 846.274C764.707 850.196 877.256 905.882 916.08 945.098C938.825 971.372 951.766 1005.49 964.707 1037.25C974.119 1062.74 982.354 1089.02 987.06 1116.08C989.021 1126.27 990.197 1136.86 990.197 1147.45C989.805 1163.14 990.982 1179.22 995.295 1194.9C1008.24 1243.92 1036.86 1289.02 1069.41 1327.84L1070.2 1328.63L1070.59 1329.02C1070.59 1329.02 1070.2 1328.63 1071.77 1330.2C1072.94 1333.33 1073.33 1338.04 1072.16 1340.78ZM1053.73 1332.55C1053.33 1333.73 1052.55 1335.29 1052.94 1337.25C1052.94 1339.22 1053.73 1340.78 1054.51 1341.96C1055.69 1343.53 1055.3 1342.74 1055.3 1343.14L1054.9 1342.74C1052.16 1338.82 1046.67 1330.98 1043.92 1326.67C1011.77 1276.08 980.001 1220 978.825 1158.43C979.609 1118.04 967.06 1079.22 953.727 1041.96C944.315 1016.86 933.334 992.549 919.217 969.804C915.687 964.313 912.158 958.823 907.452 954.117C893.334 940.392 876.08 929.411 858.825 919.608C812.942 894.117 763.138 872.941 710.982 866.274L715.687 865.882C708.629 868.235 701.57 869.804 694.511 871.372L702.354 859.215C704.707 867.451 705.099 877.255 711.766 882.745C716.08 887.843 718.432 894.51 721.178 900C727.452 914.902 731.766 930.196 734.511 946.274C741.57 984.706 718.825 1016.47 681.178 1025.1C649.413 1032.55 616.079 1025.88 585.883 1016.08C504.707 990.196 445.883 919.215 414.119 842.353L424.315 848.627C362.354 847.843 300.785 860 244.707 886.666C232.55 892.549 220.001 899.215 208.629 906.274C192.55 919.215 184.707 939.608 176.472 958.039C150.981 1022.35 136.079 1089.8 119.217 1156.47C107.452 1203.53 91.7658 1270.2 80.001 1317.65L70.5893 1304.71C354.511 1310.59 765.099 1323.14 1053.73 1332.55Z" fill="#111111"/>
<path d="M243.531 1334.9C243.531 1334.9 238.433 1207.84 233.334 1184.31" stroke="#111111" stroke-width="5.1512" stroke-miterlimit="10" stroke-linecap="round" stroke-linejoin="round"/>
<path d="M938.431 1334.9C938.431 1334.9 926.666 1256.08 926.666 1242.35C926.666 1229.02 936.862 1185.1 938.431 1146.67" stroke="#111111" stroke-width="5.1512" stroke-miterlimit="10" stroke-linecap="round" stroke-linejoin="round"/>
<path d="M359.218 1236.08V1189.41L471.767 1235.29C471.375 1235.29 380.787 1237.65 359.218 1236.08Z" fill="white"/>
<path d="M627.452 1084.31L613.334 1376.86C613.334 1376.86 737.648 1461.57 737.648 1459.22C737.648 1456.86 796.472 1354.12 796.472 1354.12L704.707 1072.55C704.707 1072.55 692.942 1084.71 627.452 1084.31Z" fill="#111111"/>
<path d="M655.689 990.197C655.689 990.197 601.963 1040.78 594.905 1054.12C587.846 1067.45 625.101 1088.63 625.101 1088.63C625.101 1088.63 685.101 1101.18 712.159 1076.86C712.159 1076.86 727.453 1060 724.316 1043.92C721.571 1028.24 655.689 990.197 655.689 990.197Z" fill="#111111"/>
<path d="M406.666 800.392C407.058 800 407.451 799.608 407.843 799.216C412.156 794.118 418.431 790.98 425.49 790.196C458.431 786.274 461.96 789.804 469.019 800.784C503.137 854.117 547.451 956.078 656.078 990.588L551.372 1097.25C545.882 1104.31 536.078 1105.49 529.019 1100.39C495.294 1075.29 427.843 998.431 390.588 904.706C382.745 885.098 381.176 863.529 385.098 843.137C384.313 842.353 400 809.804 406.666 800.392Z" fill="white"/>
<path d="M403.921 798.431C409.803 792.941 416.47 788.235 424.705 787.059C435.686 785.882 447.058 783.529 458.431 785.882C470.196 789.412 474.509 802.353 481.176 811.372C510.588 859.608 541.176 908.627 586.274 942.745C602.352 955.686 620.784 965.49 639.607 973.333C646.666 976.078 654.117 978.431 661.176 981.569C667.058 984.314 668.235 992.941 663.137 996.863C634.117 1020.39 606.666 1045.88 579.607 1072.16C573.333 1078.43 558.823 1092.94 553.333 1098.43C547.058 1106.67 534.509 1107.84 526.666 1101.57L522.745 1098.43C509.411 1087.45 497.254 1074.9 485.49 1062.35C443.529 1016.08 408.235 963.529 384.705 905.49C376.47 884.706 374.509 861.176 379.607 839.608C385.49 825.098 393.333 810.588 403.921 798.431ZM411.764 803.921C403.137 816.078 395.686 830.98 389.411 844.706L389.803 843.529C387.451 856.471 387.451 869.804 390.196 882.353C392.549 895.686 398.431 907.451 403.529 919.608C414.117 944.706 427.451 968.627 441.568 991.765C455.686 1014.9 471.764 1037.25 489.803 1058.04C501.96 1072.16 514.902 1085.88 529.803 1097.25C530.98 1098.43 532.156 1098.82 533.725 1099.61C539.215 1101.96 545.882 1100 549.411 1095.29L562.352 1081.96L575.294 1068.24C601.176 1041.18 625.882 1012.94 649.019 983.529L652.941 999.608C624.705 990.98 598.039 975.686 574.902 956.471C529.019 919.216 499.215 867.451 470.98 817.255C467.451 811.765 463.921 804.706 460.392 799.608C458.823 797.255 457.647 796.47 455.294 795.686C446.274 793.333 435.686 794.902 426.274 796.078C420 796.863 414.902 799.608 411.764 803.921Z" fill="#111111"/>
<path d="M765.49 1058.43C763.137 1071.37 753.725 1083.53 738.039 1067.45L655.294 990.197C655.294 990.197 703.529 944.315 691.764 861.177C707.843 857.648 723.137 852.55 737.254 845.883C737.647 846.668 743.137 857.256 749.411 874.903C762.745 911.374 779.607 978.432 765.49 1058.43Z" fill="white"/>
<path d="M767.844 1058.82C765.491 1077.65 751.373 1085.49 736.864 1070.98L709.021 1045.1L681.177 1019.22L653.334 993.333C651.766 991.765 651.766 989.412 652.942 987.843C674.511 962.745 685.491 928.627 685.491 895.686C685.491 883.921 683.922 872.549 681.962 860.784C681.177 856.078 685.099 851.765 690.197 851.373C705.883 850.98 721.57 849.02 737.256 845.098C737.648 844.706 738.432 845.098 738.432 845.49C769.805 911.372 779.609 987.059 767.844 1058.82ZM763.53 1058.04C772.942 988.235 762.746 915.686 730.197 853.333L729.413 852.157C729.021 851.765 728.628 850.98 728.628 850.98L741.962 854.902C726.668 862.353 710.589 867.451 694.119 870.98L701.962 859.608C704.315 883.921 702.354 908.627 695.295 931.765C687.844 954.902 676.079 976.078 658.432 993.333V987.451C672.55 1000.39 700.393 1026.67 714.119 1039.61L741.57 1065.88C751.374 1076.08 760.785 1072.16 763.53 1058.04Z" fill="#111111"/>
<path d="M717.648 963.137C709.413 1003.53 656.079 1027.84 566.275 991.372C472.942 953.725 432.55 863.921 422.354 837.255C477.648 733.725 439.217 661.961 439.217 661.961C566.667 650.98 678.04 800 678.04 800L695.295 873.725C696.864 880 700.001 885.49 704.707 889.412C712.942 903.921 722.746 937.255 717.648 963.137Z" fill="white"/>
<path d="M420.395 838.431C427.846 827.059 432.552 813.726 435.689 800.784C441.571 773.726 443.532 746.275 443.924 718.824V708.627C442.748 698.431 439.218 687.843 435.297 678.431C430.199 665.882 448.63 658.039 454.512 670.588C455.297 672.157 455.297 674.902 455.297 676.471C456.473 729.804 458.826 798.431 425.101 842.745C422.748 845.098 418.042 841.569 420.395 838.431Z" fill="#111111"/>
<path d="M682.354 799.216C688.237 802.745 690.197 807.451 690.982 812.157C693.335 821.569 692.55 831.765 694.903 841.569C696.864 850.981 702.746 860 704.315 869.804C706.276 880 712.158 901.569 714.511 912.157C715.295 914.51 713.727 917.255 710.982 917.647C709.413 918.04 708.237 917.647 707.06 916.863C701.962 912.549 699.609 908.236 696.472 902.745C691.374 893.334 687.845 884.706 684.707 874.118C681.962 864.706 683.139 854.51 680.786 844.706C678.825 835.294 673.335 826.275 671.374 816.471C670.197 811.765 669.805 806.667 673.335 800.785C675.688 798.432 679.609 797.647 682.354 799.216Z" fill="#111111"/>
<path d="M710.591 902.745C635.689 898.823 574.512 875.294 514.905 769.02C565.101 813.333 624.316 830.196 686.669 838.039L694.905 874.117C696.473 880.392 705.885 898.823 710.591 902.745Z" fill="#111111"/>
<path d="M707.455 888.235C720.788 913.333 728.632 944.706 720.396 972.549C714.122 992.157 696.083 1006.67 676.475 1012.16C630.985 1024.31 578.436 1005.1 538.043 983.529C488.239 955.686 451.377 909.019 427.847 858.039C426.279 854.117 431.769 850.98 434.122 854.902C442.357 871.372 451.769 887.451 462.357 901.961C472.945 916.863 485.102 930.588 498.828 942.745C538.828 978.823 592.945 1001.18 647.063 1001.18C702.749 999.608 723.926 970.196 710.985 916.078C709.024 907.451 705.886 898.431 701.573 890.98C699.22 887.843 705.102 884.314 707.455 888.235Z" fill="#111111"/>
<path d="M859.217 417.255C866.276 450.196 860.786 472.157 857.648 563.137C821.569 713.725 824.315 797.255 804.315 817.255C788.629 832.941 694.903 853.334 625.491 835.686C590.197 826.667 560.393 806.275 536.08 791.765C505.491 773.333 482.354 713.333 460.393 676.863C443.139 648.235 441.178 685.883 418.825 661.177C387.844 627.451 350.59 559.608 369.021 439.608C398.825 245.098 552.942 222.353 667.06 243.922C781.57 265.49 840.393 330.588 859.217 417.255Z" fill="white"/>
<path d="M438.04 695.687C424.315 672.941 404.707 654.118 392.158 630.589C354.119 559.216 346.276 472.549 368.237 394.902C414.119 229.412 580.393 205.098 724.707 253.726C805.491 281.177 862.354 349.412 870.59 435.294C871.374 462.745 864.315 488.236 863.923 515.294C861.962 586.667 839.609 655.294 830.982 723.922C829.021 745.491 829.021 768.236 825.884 790.196C825.099 794.902 824.315 799.216 822.746 804.314C819.217 814.902 811.374 822.353 802.746 828.236C770.197 848.236 733.335 851.765 696.472 853.726C619.609 856.863 552.158 834.51 506.276 770.589C504.707 768.236 507.844 765.49 509.805 767.843C561.178 822.745 622.746 840.392 695.688 836.863C726.668 835.294 792.942 829.412 806.668 799.216C813.335 774.51 813.335 748.628 817.256 722.745C821.57 692.157 833.335 649.412 840.393 619.216C848.237 585.098 854.903 550.589 855.295 515.687C855.688 498.04 855.688 480.392 855.688 462.745C856.472 445.098 852.942 429.804 848.629 412.941C832.942 345.883 784.707 290.196 719.609 265.49C655.688 240.785 581.57 234.51 516.08 256.079C449.413 277.255 403.923 334.51 386.668 401.177C377.648 434.118 372.942 468.628 370.589 502.745C368.629 537.255 372.158 572.549 385.884 604.706C395.688 629.02 411.766 650.196 430.59 667.843L449.021 687.059C457.648 694.902 444.315 705.098 438.04 695.687Z" fill="#111111"/>
<path d="M484.315 570.981C484.315 570.981 472.158 512.157 414.903 519.216C365.492 525.49 348.237 643.922 460.393 676.863" fill="white"/>
<path d="M455.297 625.491C446.277 620.393 440.002 611.765 439.61 601.177C440.002 593.334 441.179 584.314 439.218 576.471C438.042 569.02 430.198 567.059 424.316 567.451C418.042 568.628 414.12 576.471 412.944 582.746C412.944 583.138 412.551 584.314 412.551 584.706C412.159 586.667 409.022 586.667 408.238 584.706C403.14 569.412 414.512 552.549 430.983 554.51C454.12 556.079 457.257 580.393 452.944 598.824C450.591 606.667 453.728 613.726 458.042 620.393L458.826 621.569C460.787 623.922 457.649 627.059 455.297 625.491Z" fill="#111111"/>
<path d="M769.021 529.412C774.903 557.255 785.884 583.137 799.609 607.451C811.766 637.255 780.393 665.49 752.55 664.314C749.413 664.314 749.021 660 751.766 659.216C769.413 653.726 785.491 641.961 788.237 623.922C789.413 618.432 787.844 613.726 785.099 609.02C772.158 584.706 764.315 556.863 766.276 529.412C766.276 527.451 769.021 527.451 769.021 529.412Z" fill="#111111"/>
<path d="M482.353 571.373C473.334 548.235 453.726 526.275 427.451 526.667C425.098 526.275 421.177 527.059 418.824 527.059C412.157 527.451 406.667 529.804 401.569 534.51C376.471 559.608 380.785 603.922 401.177 631.765C408.236 641.569 417.255 650.196 427.451 657.255C437.647 664.314 449.02 669.804 461.177 674.51C463.922 675.294 462.745 679.608 460 679.216C433.726 673.726 408.628 660.784 391.373 639.216C364.706 607.059 359.216 553.333 390.981 521.961C398.039 515.686 407.843 510.98 417.647 510.98C420.785 510.98 425.49 510.196 428.628 510.98C445.098 511.765 460.785 520 470.981 532.941C480 543.922 485.098 557.255 486.667 570.588C486.667 572.941 483.138 573.726 482.353 571.373Z" fill="#111111"/>
<path d="M739.216 703.529C714.118 727.451 666.667 708.235 654.118 679.216C652.549 675.686 656.471 672.549 659.608 674.117C666.275 677.647 672.157 681.176 678.432 683.921C696.471 692.157 715.294 698.823 735.294 696.863C739.216 696.078 741.961 700.784 739.216 703.529Z" fill="#111111"/>
<path d="M622.746 569.412C613.334 569.02 606.275 561.177 607.06 551.765L607.452 540.785C607.844 531.373 615.687 524.314 625.099 525.099C634.511 525.491 641.57 533.334 640.785 542.746L640.393 553.726C640.001 562.746 632.158 569.804 622.746 569.412Z" fill="#111111"/>
<path d="M787.843 575.295C779.215 574.903 772.549 567.452 772.941 558.824L773.333 548.628C773.725 540.001 781.176 533.334 789.803 533.726C798.431 534.119 805.098 541.57 804.705 550.197L804.313 560.393C803.921 569.02 796.47 575.687 787.843 575.295Z" fill="#111111"/>
<path d="M658.04 548.236C645.099 539.608 630.981 533.726 615.295 536.863C610.197 537.647 605.099 539.216 601.962 542.746C600.785 544.314 598.04 543.922 598.04 541.569C598.432 533.726 605.099 528.628 611.373 525.491C623.53 519.216 640.393 520.393 651.373 528.628C655.295 530.981 668.628 545.491 661.569 548.628C660.001 549.412 659.217 549.02 658.04 548.236Z" fill="#111111"/>
<path d="M770.197 550.197C770.197 533.726 790.589 527.844 803.138 533.726C810.197 536.863 815.295 543.138 817.256 550.589C818.04 552.942 814.511 554.903 812.942 552.942C806.275 545.099 794.903 541.177 785.883 545.883C783.138 547.452 782.746 548.628 781.962 550.197C781.962 558.04 770.589 557.648 770.197 550.197Z" fill="#111111"/>
<path d="M676.864 483.53C685.099 486.275 693.334 478.824 691.766 469.804C690.981 465.098 689.02 460.392 685.099 456.863C673.334 446.275 624.707 436.863 595.295 450.589C569.413 463.138 639.217 470.981 676.864 483.53Z" fill="#111111"/>
<path d="M794.12 489.804C787.453 492.157 780.394 485.098 781.571 476.863C781.963 472.549 783.532 468.236 786.669 465.098C796.081 455.687 828.237 448.236 848.63 462.745C866.277 474.902 824.708 478.432 794.12 489.804Z" fill="#111111"/>
<path d="M897.648 334.902C877.256 160.784 704.314 101.96 737.648 218.039C737.648 218.039 692.158 145.098 589.805 141.176C501.961 138.039 555.295 200.392 555.295 200.392C555.295 200.392 487.06 161.176 371.373 220C270.589 271.372 363.922 316.47 363.922 316.47C363.922 316.47 287.844 356.862 286.667 443.921C286.275 466.666 305.099 501.568 349.805 490.196C338.432 576.862 391.373 647.843 415.687 676.862C447.06 714.509 449.805 743.137 449.805 743.137C465.883 734.117 447.06 693.725 447.452 672.549C349.412 634.902 367.06 525.49 414.903 519.215C465.099 512.941 480.785 557.647 483.53 568.627C491.765 558.823 494.118 520.784 498.824 480.392C513.334 475.686 526.275 470.588 536.863 463.921C578.432 439.215 598.04 396.47 640.393 371.372C714.511 327.058 733.726 427.058 773.334 390.196C819.216 347.843 852.55 381.568 862.746 433.725C866.667 452.549 890.589 450.98 894.118 432.156C899.609 404.705 901.961 371.764 897.648 334.902Z" fill="#111111"/>
<path d="M651.766 822.745C644.315 823.529 640.001 831.372 643.53 838.039C650.589 851.372 668.628 858.823 680.001 863.529C698.824 871.765 701.57 871.372 714.511 874.117C735.687 878.431 747.452 869.019 752.55 863.137C757.648 857.255 761.177 851.372 767.844 836.47C770.981 829.412 777.648 829.412 778.824 823.529C780.393 813.725 756.471 796.47 748.628 792.549C735.295 785.49 711.766 790.98 688.236 809.412C674.903 818.431 661.57 821.568 651.766 822.745Z" fill="#111111"/>
<path d="M1130.2 330.588C1368.24 789.02 949.804 1306.27 450.98 1180C227.059 1124.31 47.0589 930.196 9.80403 702.353C-32.5489 475.686 69.804 232.157 261.177 103.922C523.53 -76.4704 887.059 -16.4704 1074.9 241.569C1076.08 242.745 1075.69 244.706 1074.12 245.883C1072.94 247.059 1070.98 246.667 1069.8 245.098C1043.92 211.765 1014.51 181.569 982.353 154.51C929.412 109.412 867.451 74.1179 801.961 50.1963C468.628 -70.588 102.745 130.196 29.804 478.824C-52.5489 869.412 279.608 1229.02 675.686 1175.29C981.177 1136.86 1208.24 854.902 1183.14 548.235C1177.65 474.118 1158.04 400.785 1125.49 333.334C1124.71 332.157 1125.49 330.588 1126.67 329.804C1127.84 329.02 1129.41 329.412 1130.2 330.588Z" fill="#111111"/>
</g>
</svg>
